<svg id="undraw_Scrum_board_re_wk7v" xmlns="http://www.w3.org/2000/svg" width="724.129" height="476.354" viewBox="0 0 724.129 476.354">
  <path id="Path_1" data-name="Path 1" d="M287.207,162.143H241.028c-9.244.008-16.736,6.994-16.744,15.614v46.686c-.59-.033-1.181-.082-1.763-.148-30.387-2.981-53.316-27.089-52.86-55.578s24.145-51.949,54.614-54.083,57.652,17.76,62.668,45.866C287.04,161.042,287.128,161.592,287.207,162.143Z" transform="translate(-126.747 -114.477)" fill="#f2f2f2"/>
  <path id="Path_2" data-name="Path 2" d="M822.29,154.422H230.95c-10.216.01-18.5,7.731-18.507,17.258V462.595c.011,9.527,8.29,17.247,18.507,17.258H822.29c10.217-.01,18.5-7.731,18.507-17.258V171.68c-.011-9.527-8.29-17.247-18.507-17.258Zm16.744,308.172c-.008,8.62-7.5,15.606-16.744,15.614H230.95c-9.244-.008-16.736-6.994-16.744-15.614V171.68c.008-8.62,7.5-15.606,16.744-15.614H822.29c9.244.008,16.736,6.994,16.744,15.614Z" transform="translate(-116.669 -108.4)" fill="#3f3d56"/>
  <path id="Path_3" data-name="Path 3" d="M784.3,195.56H251.128a.824.824,0,1,1,0-1.644H784.3a.824.824,0,1,1,0,1.644Z" transform="translate(-107.765 -102.392)" fill="#3f3d56"/>
  <path id="Path_4" data-name="Path 4" d="M373.1,442.128a.853.853,0,0,1-.881-.822V170.936a.883.883,0,0,1,1.763,0v270.37a.853.853,0,0,1-.881.822Z" transform="translate(-79.037 -106.013)" fill="#3f3d56"/>
  <path id="Path_5" data-name="Path 5" d="M480.806,442.128a.853.853,0,0,1-.881-.822V170.936a.883.883,0,0,1,1.763,0v270.37a.853.853,0,0,1-.881.822Z" transform="translate(-53.669 -106.013)" fill="#3f3d56"/>
  <path id="Path_6" data-name="Path 6" d="M588.511,442.128a.853.853,0,0,1-.881-.822V170.936a.883.883,0,0,1,1.763,0v270.37a.853.853,0,0,1-.881.822Z" transform="translate(-28.301 -106.013)" fill="#3f3d56"/>
  <path id="Path_7" data-name="Path 7" d="M310.578,274.623h-32.2a3.843,3.843,0,0,1-3.966-3.7V235.489a3.843,3.843,0,0,1,3.966-3.7h32.2a3.843,3.843,0,0,1,3.966,3.7v35.435A3.843,3.843,0,0,1,310.578,274.623Z" transform="translate(-102.074 -96.63)" fill="#6c63ff"/>
  <path id="Path_8" data-name="Path 8" d="M347.669,362.357h-32.2a3.843,3.843,0,0,1-3.966-3.7V323.223a3.843,3.843,0,0,1,3.966-3.7h32.2a3.843,3.843,0,0,1,3.966,3.7v35.435A3.843,3.843,0,0,1,347.669,362.357Z" transform="translate(-93.338 -83.283)" fill="#6c63ff"/>
  <path id="Path_9" data-name="Path 9" d="M431.836,293.168h-32.2a3.843,3.843,0,0,1-3.966-3.7V254.034a3.843,3.843,0,0,1,3.966-3.7h32.2a3.843,3.843,0,0,1,3.966,3.7V289.47a3.843,3.843,0,0,1-3.966,3.7Z" transform="translate(-73.514 -93.809)" fill="#6c63ff"/>
  <path id="Path_10" data-name="Path 10" d="M540.969,259.644h-32.2a3.843,3.843,0,0,1-3.966-3.7V220.51a3.843,3.843,0,0,1,3.966-3.7h32.2a3.843,3.843,0,0,1,3.966,3.7v35.435A3.843,3.843,0,0,1,540.969,259.644Z" transform="translate(-47.81 -98.909)" fill="#6c63ff"/>
  <path id="Path_11" data-name="Path 11" d="M641.542,259.644h-32.2a3.843,3.843,0,0,1-3.966-3.7V220.51a3.843,3.843,0,0,1,3.966-3.7h32.2a3.843,3.843,0,0,1,3.966,3.7v35.435A3.843,3.843,0,0,1,641.542,259.644Z" transform="translate(-24.122 -98.909)" fill="#6c63ff"/>
  <path id="Path_12" data-name="Path 12" d="M687.905,268.2H655.7a3.843,3.843,0,0,1-3.966-3.7V229.069a3.843,3.843,0,0,1,3.966-3.7h32.2a3.843,3.843,0,0,1,3.966,3.7V264.5A3.843,3.843,0,0,1,687.905,268.2Z" transform="translate(-13.202 -97.607)" fill="#e6e6e6"/>
  <path id="Path_13" data-name="Path 13" d="M667.22,323.126h-32.2a3.843,3.843,0,0,1-3.966-3.7V283.992a3.843,3.843,0,0,1,3.966-3.7h32.2a3.843,3.843,0,0,1,3.966,3.7v35.435A3.843,3.843,0,0,1,667.22,323.126Z" transform="translate(-18.074 -89.251)" fill="#e6e6e6"/>
  <path id="Path_14" data-name="Path 14" d="M578.773,311.713h-32.2a3.843,3.843,0,0,1-3.966-3.7V272.58a3.843,3.843,0,0,1,3.966-3.7h32.2a3.843,3.843,0,0,1,3.966,3.7v35.435a3.843,3.843,0,0,1-3.966,3.7Z" transform="translate(-38.906 -90.988)" fill="#ff6584"/>
  <path id="Path_15" data-name="Path 15" d="M528.13,323.126h-32.2a3.843,3.843,0,0,1-3.966-3.7V283.992a3.843,3.843,0,0,1,3.966-3.7h32.2a3.843,3.843,0,0,1,3.966,3.7v35.435A3.843,3.843,0,0,1,528.13,323.126Z" transform="translate(-50.834 -89.251)" fill="#e6e6e6"/>
  <path id="Path_16" data-name="Path 16" d="M419,371.629H386.8a3.843,3.843,0,0,1-3.966-3.7V332.5a3.843,3.843,0,0,1,3.966-3.7H419a3.843,3.843,0,0,1,3.966,3.7v35.435A3.843,3.843,0,0,1,419,371.629Z" transform="translate(-76.538 -81.873)" fill="#e6e6e6"/>
  <path id="Path_17" data-name="Path 17" d="M287.04,330.972h-32.2a3.843,3.843,0,0,1-3.966-3.7V291.838a3.843,3.843,0,0,1,3.966-3.7h32.2a3.843,3.843,0,0,1,3.966,3.7v35.435A3.843,3.843,0,0,1,287.04,330.972Z" transform="translate(-107.618 -88.058)" fill="#ff6584"/>
  <path id="Path_18" data-name="Path 18" d="M360.508,274.623h-32.2a3.843,3.843,0,0,1-3.966-3.7V235.489a3.843,3.843,0,0,1,3.966-3.7h32.2a3.843,3.843,0,0,1,3.966,3.7v35.435A3.843,3.843,0,0,1,360.508,274.623Z" transform="translate(-90.314 -96.63)" fill="#e6e6e6"/>
  <path id="Path_19" data-name="Path 19" d="M342.523,184.535H292.289a3.3,3.3,0,1,1,0-6.574h50.233a3.3,3.3,0,1,1,0,6.574Z" transform="translate(-98.693 -104.819)" fill="#ccc"/>
  <path id="Path_20" data-name="Path 20" d="M457.361,184.535H407.128a3.3,3.3,0,1,1,0-6.574h50.233a3.3,3.3,0,1,1,0,6.574Z" transform="translate(-71.645 -104.819)" fill="#ccc"/>
  <path id="Path_21" data-name="Path 21" d="M565.067,184.535H514.834a3.3,3.3,0,1,1,0-6.574h50.233a3.3,3.3,0,1,1,0,6.574Z" transform="translate(-46.277 -104.819)" fill="#ccc"/>
  <path id="Path_22" data-name="Path 22" d="M665.64,184.535H615.407a3.3,3.3,0,1,1,0-6.574H665.64a3.3,3.3,0,1,1,0,6.574Z" transform="translate(-22.589 -104.819)" fill="#ccc"/>
  <path id="Path_23" data-name="Path 23" d="M246.98,396.926a9,9,0,0,1-6.453-3.562,7.8,7.8,0,0,1-1.214-6.9l-22.59-19.609,11.944-2.825,22.213,16.8a8.231,8.231,0,0,1,5.716,9.663,8.869,8.869,0,0,1-9.616,6.432Z" transform="translate(-115.661 -76.513)" fill="#ffb8b8"/>
  <path id="Path_24" data-name="Path 24" d="M131.533,409.03h10.8l5.14-38.861H131.531Z" transform="translate(30.979 56.315)" fill="#ffb8b8"/>
  <path id="Path_25" data-name="Path 25" d="M0,0H33.956V12.234H13.12C5.874,12.234,0,6.757,0,0H0Z" transform="translate(194.15 474.7) rotate(179.997)" fill="#2f2e41"/>
  <path id="Path_26" data-name="Path 26" d="M71.574,402.543l10.441,2.592L97.7,368.815l-15.409-3.825Z" transform="translate(16.858 55.527)" fill="#ffb8b8"/>
  <path id="Path_27" data-name="Path 27" d="M0,.137l33.8-.57-.22,12.292-20.744.35C5.626,12.331-.123,6.926,0,.137H0Z" transform="matrix(-0.966, -0.257, 0.257, -0.966, 116.391, 474.834)" fill="#2f2e41"/>
  <path id="Path_28" data-name="Path 28" d="M294.655,535.628H278.168A4.069,4.069,0,0,1,274,532.1l-10.009-96.916a3.2,3.2,0,0,0-2.967-2.77,3.306,3.306,0,0,0-3.485,2.183l-29.059,90.561a4.224,4.224,0,0,1-5.023,2.668l-15.337-3.576a4.17,4.17,0,0,1-2.58-1.788,3.675,3.675,0,0,1-.458-2.967c.25-.912,25.038-91.242,25.254-92.171,5.616-38.6,12.335-48.941,15.945-54.5.3-.46.573-.883.821-1.282.309-.5,2.214-5.46,3.422-8.682a4.01,4.01,0,0,1,2.146-2.447c15.168-7.233,32.914-2.226,37.991-.519a4.1,4.1,0,0,1,2.061,1.492c15.233,21.425,7.757,145.861,6.1,170.589a4.076,4.076,0,0,1-4.176,3.651Z" transform="translate(-118.433 -77.641)" fill="#2f2e41"/>
  <ellipse id="Ellipse_1" data-name="Ellipse 1" cx="21.645" cy="20.184" rx="21.645" ry="20.184" transform="translate(112.031 172.137)" fill="#ffb8b8"/>
  <path id="Path_29" data-name="Path 29" d="M246.2,374.762l-.156-.14c-.292-.263-29.131-26.61-25.4-50.971,1.6-10.42,10.637-17.078,26.146-19.255,11.779-1.631,23.051,5.068,26.438,15.714l15.334,48.884Z" transform="translate(-114.816 -85.622)" fill="#ccc"/>
  <path id="Path_30" data-name="Path 30" d="M233.882,391.4l-20.55-19.042a10.314,10.314,0,0,1-3.067-10.183l9.948-37.736a8.608,8.608,0,0,1,4.394-5.389,9.714,9.714,0,0,1,7.221-.693,8.466,8.466,0,0,1,6,10.514l-10.473,33.2,16.937,16.959Z" transform="translate(-117.259 -83.521)" fill="#ccc"/>
  <path id="Path_31" data-name="Path 31" d="M326.258,326.862a8.727,8.727,0,0,1-5.729,4.511,9.394,9.394,0,0,1-7.387-1.2l-27.434,13.259,1.213-11.263,24.321-14.035a9.353,9.353,0,0,1,11.666-1.855,8.009,8.009,0,0,1,3.351,10.584Z" transform="translate(-99.413 -83.969)" fill="#ffb8b8"/>
  <path id="Path_32" data-name="Path 32" d="M319.891,336.333l-26.744,10.777a11.979,11.979,0,0,1-11-1.1l-34.008-22.722a8.433,8.433,0,0,1-3.732-5.806,8.111,8.111,0,0,1,1.993-6.509,9.639,9.639,0,0,1,12.7-1.289l29.16,21.4,23.178-8.362Z" transform="translate(-109.158 -85.055)" fill="#ccc"/>
  <path id="Path_33" data-name="Path 33" d="M255.951,291.175c2.67-3.12,7.659-3.288,11.327-5.346a11.931,11.931,0,0,0,5.243-13.745c-1.548-5.025-6.114-8.942-11.349-10.815s-11.06-1.9-16.582-.991c-8.223,1.348-16.318,4.927-21.333,11.151s-6.291,15.339-1.746,21.87c2.089,3,5.313,5.479,6.147,8.972,1.095,4.585-2.354,9.008-6.049,12.2-4.21,3.637-9.039,6.684-12.727,10.784s-6.148,9.7-4.465,14.819c1.41,4.287,5.513,7.445,10.013,9.027s9.4,1.81,14.207,1.9c4.668.085,9.627-.021,13.559-2.368a14.432,14.432,0,0,0,6.624-11.938c.166-4.659-1.5-9.223-3.741-13.391a49.957,49.957,0,0,1-3.77-7.544,9.923,9.923,0,0,1,.379-8.105c1.492-2.568,4.51-4.116,7.583-4.679.16-.029.329-.055.505-.079a6.622,6.622,0,0,0,4.417-2.432,5.766,5.766,0,0,0,1.164-4.659C255.008,293.984,255.038,292.242,255.951,291.175Z" transform="translate(-118.687 -92.385)" fill="#2f2e41"/>
  <path id="Path_34" data-name="Path 34" d="M347.719,409.777h-10.8l-5.14-38.861H347.72Z" transform="translate(78.142 56.428)" fill="#a0616a"/>
  <path id="Path_35" data-name="Path 35" d="M332.189,402.147h20.837v12.234H319.07C319.07,407.624,324.943,402.147,332.189,402.147Z" transform="translate(75.15 61.179)" fill="#2f2e41"/>
  <path id="Path_36" data-name="Path 36" d="M414.2,399.408l-9.827,4.185-21.992-33.356,14.505-6.178Z" transform="translate(90.06 55.385)" fill="#a0616a"/>
  <path id="Path_37" data-name="Path 37" d="M12.881.252,33.476.784,33.81,13.17.249,12.3h0C.065,5.463,5.72.067,12.881.252Z" transform="matrix(0.91, -0.415, 0.415, 0.91, 474.301, 464.476)" fill="#2f2e41"/>
  <path id="Path_38" data-name="Path 38" d="M520.318,410.615a8.12,8.12,0,0,0,3.521-6.173,7.989,7.989,0,0,0-2.815-6.481l12.7-26.873-16.135,2.55L508,398.766a7.9,7.9,0,0,0,.514,11.026,9.389,9.389,0,0,0,11.8.824Z" transform="translate(-47.527 -75.439)" fill="#a0616a"/>
  <path id="Path_39" data-name="Path 39" d="M482.844,529.715H472.523a3.878,3.878,0,0,1-3.956-3.43l-5.629-140.164a3.564,3.564,0,0,1,1.186-2.915,4.141,4.141,0,0,1,3.155-1.033l59.694,5.911a3.814,3.814,0,0,1,3.58,3.611l1.251,61.828a2.7,2.7,0,0,0,.206.981L556.5,513.715a3.468,3.468,0,0,1-.087,2.855,3.869,3.869,0,0,1-2.242,1.945l-10.459,3.594a4.092,4.092,0,0,1-4.9-1.778l-30.08-54.542a3.52,3.52,0,0,1-.356-.939l-5.139-23.087a3.052,3.052,0,0,0-3.159-2.289,3,3,0,0,0-2.925,2.546l-10.366,84.417a3.877,3.877,0,0,1-3.94,3.278Z" transform="translate(-57.672 -73.756)" fill="#2f2e41"/>
  <ellipse id="Ellipse_2" data-name="Ellipse 2" cx="21.645" cy="20.184" rx="21.645" ry="20.184" transform="translate(408.666 162.402)" fill="#a0616a"/>
  <path id="Path_40" data-name="Path 40" d="M503.137,411.726a81.308,81.308,0,0,1-41.308-11.668l-.211-.135.022-.238,8.28-89.917c.59-6.308,6.083-11.242,12.866-11.556,10.73-.46,25.144.12,32.859,5.479,11.66,8.1,17.28,20.293,15.419,33.457-3.86,27.3.513,64.124,1.024,68.233l.037.3-.291.124a72.252,72.252,0,0,1-28.7,5.925Z" transform="translate(-57.981 -86.545)" fill="#6c63ff"/>
  <path id="Path_41" data-name="Path 41" d="M521.5,402.791a4.564,4.564,0,0,1-3.244-1.333l-4.735-4.817a3.928,3.928,0,0,1-.977-3.94l10.8-34.075L506.91,326.458a6.813,6.813,0,0,1-.532-4.832,7.6,7.6,0,0,1,6.557-5.462,7.928,7.928,0,0,1,7.819,3.749l22.292,33.728a9.247,9.247,0,0,1,.635,9.2l-18.163,37.527a4.366,4.366,0,0,1-3.319,2.367A4.764,4.764,0,0,1,521.5,402.791Z" transform="translate(-47.491 -83.803)" fill="#6c63ff"/>
  <path id="Path_42" data-name="Path 42" d="M395.782,336.831a9.374,9.374,0,0,0,7.345,1.407A8.777,8.777,0,0,0,409,333.891l31.231,3.777-7.178-13.714L404.5,322.47a9.233,9.233,0,0,0-11.2,3.572,7.957,7.957,0,0,0,2.483,10.79Z" transform="translate(-74.345 -82.934)" fill="#a0616a"/>
  <path id="Path_43" data-name="Path 43" d="M461.284,348.028a12.683,12.683,0,0,1-1.625-.1l-49.133-6.355a4.869,4.869,0,0,1-3.746-2.557,4.467,4.467,0,0,1-.28-.681h0a4.306,4.306,0,0,1,.507-3.642l4.066-6.286a5.005,5.005,0,0,1,4.191-2.207h.007l42.827.046,31.985-26.722a9.04,9.04,0,0,1,5.382-2.054,8.742,8.742,0,0,1,8.339,4.828,7.688,7.688,0,0,1-1.842,8.991l-31.916,33.1a12.173,12.173,0,0,1-8.762,3.644Z" transform="translate(-71.009 -86.641)" fill="#6c63ff"/>
  <path id="Path_44" data-name="Path 44" d="M491.07,294.639c1.978-4.269,3.652-9.954-.142-12.972-2.2-1.751-5.37-1.754-8.254-1.972-8.123-.614-16.485-4.1-20.455-10.736s-1.753-16.505,5.737-19.5c5.049-2.018,10.837-.643,16.122.754l15.868,4.2c4.715,1.247,9.665,2.622,13.06,5.918,5.414,5.257,5.009,14.144.709,20.231s-10.775,12.434-18.188,14.745Z" transform="translate(-58.297 -94.097)" fill="#2f2e41"/>
  <path id="Path_45" data-name="Path 45" d="M786.621,527.735H135.976a.981.981,0,1,1,0-1.957H786.621a.981.981,0,1,1,0,1.957Z" transform="translate(-134.926 -51.907)" fill="#3f3d56"/>
</svg>
